/* XPM */
static char * caramelle_xpm[] = {
"32 32 7 1",
" 	c None",
".	c #F7CED9",
"+	c #777575",
"@	c #9C2CEB",
"#	c #F3D0DB",
"$	c #FADBE1",
"%	c #777676",
".....+.....+.......+......+.....",
".....+.....+.......+......+.....",
".....+.....+.......+......+.....",
".....+.....+.......+......+.....",
".....+.....+.......+......+.....",
".....+.....+.......+......+.....",
".....+.....+.......+......+.....",
"..@..+.....+.......+......+..@..",
"..@@.+.....+.......+......+.@@..",
"..@@@+.....+.......+......+@@@..",
"..@@@@@....+.......+.....@@@@@..",
"..@@@@@@...+..@@@@#+...@@@@@@@..",
"..@@@@@@@#.+@@@@@@@@###@@@@@@@..",
"#.@@@@@@@@#@@@@@@@@@@#@@@@@@@@..",
"$.@@@@@@@@@@@@@@@@@@@@@@@@@@@@..",
"++@@@@@@@@@@@@@@@@@@@@@@@@@@@@++",
"..@@@@@@@@@@@@@@@@@@@@@@@@@@@@..",
"..@@@@@@@@@@@@@@@@@@@@@@@@@@@@..",
"..@@@@@@@@#@@@@@@@@@@#@@@@@@@@..",
"..@@@@@@@#.#@@@@@@@@###@@@@@@@..",
"..@@@@@@%..###@@@@###.#+@@@@@@..",
"..@@@@@#+...###%####..#+.@@@@@..",
"..@@@@#.+......+#..#..#+..@@@@..",
"..@@@...+......+#.....#+...@@@..",
"..@@....+......+##.....+....@@..",
"..@.....+......+##.....+.....@..",
"..+.....+......+##.....+.....+..",
"..+.....+......+#......+.....+..",
"..+.....+......+##.....+.....+..",
"..+.....+......+#......+.....+..",
"..+.....+......+#......+.....+..",
"..+.....+......+.......+.....+.."};
