/* XPM */
static char * caramelle_xpm[] = {
"32 32 6 1",
" 	c None",
".	c #60585B",
"+	c #EFD2DD",
"@	c #F3D0DB",
"#	c #9C2CEB",
"$	c #ECD4DF",
".+++++++.+++++++.+++++++.+++@@++",
".+++++++.+++++++.+++++++.+++++++",
".+++++++.+++++++.+++++++.+++++++",
".+++++++.+++++++.+++++++.+++++++",
".+++++++.+++++++.+++++++.+++++++",
".+++++++.+++++++.+++++++.+++++++",
".+++++++.+++++++.+++++++.+++++++",
".++#++++.+++++++.+@@++@@.++++@#+",
".++##+++.+++++++.@++++++.++++##+",
".++###++.+++++++.+++++@@.+++###+",
".@@#####.+++++++.+++++++.+#####+",
".++######++++++####@++@@#######+",
".++#######+++########+++#######+",
".++########+##########+########+",
".++############################+",
".++############################+",
".++############################+",
".++############################+",
".++########+##########+########+",
".++#######+++########+++#######+",
".++######++++++####+++++.######+",
".++#####.+++++++.+++++++.$#####+",
".++####$.+++++++.+++++++.$+####+",
".++###+$.+++++++.+++++++.$++###+",
".++##++$.+++++++.+++++++.$+++##+",
".++#+++$.+++++++.+++++++.$++++#+",
".+++++++.+++++++.+++++++.+++++++",
".+++++++.+++++++.+++++++.+++++++",
".+++++++.+++++++.+++++++.+++++++",
".+++++++.+++++++.+++++++.+++++++",
".+++++++.+++++++.++++++@.+++++++",
".+++++++.+@+++++.+++++++.+++@+++"};
