/* XPM */
static char * casa_xpm[] = {
"32 32 11 1",
" 	c None",
".	c #60585B",
"+	c #EFD2DD",
"@	c #F3D0DB",
"#	c #EB2EAB",
"$	c #F91BA5",
"%	c #ECD4DF",
"&	c #83738F",
"*	c #4C4444",
"=	c #87861C",
"-	c #ABAAAA",
".+++++++.+++++++.+++++++.+++@@++",
".+++++++.+++++++.+++++++.+++++++",
".+++++++.+++++++.+++++++.+++++++",
".+++++++.+++++++.+++++++.+++++++",
".+++++++.++++++##+++++++.+++++++",
".+++++++.+++++####++++++.+++++++",
".+++++++.++++$$$$$$+++++.+++++++",
".+++++++.+++$$$$$$$$++@@.++++@++",
".+++++++.++$$$$$#$$$$+++.+++++++",
".+++++++.+$$$#$###$$$$@@.+++++++",
".@@+++++.$$$#########$$+.+++@@++",
".+++++++$$$$############.+++@@++",
".++++++$$$##############$+++++++",
".+++%%$$#################$++++@+",
".++++$$##################$$+++@+",
".+++$$#####################$@@@+",
".+++&$#$###**********####$$+@@@+",
".++++#$$###**********#####$+@@@+",
".++++$$$###**********######+@@@+",
".++++$$$###**********####$#+@@@+",
".++++$$####**********####$#+++++",
".++++$$####********=*###$$#+++++",
".++++$$####**********##$$$#++@@+",
".++++$$####**********##$$$#+++++",
".++++$$$$##**********###$$#+++++",
".++++$$$$$#**********$$####+++++",
".++++$$$$$#**********#$$$$$+++++",
".+++++++.+++++++.+++++-+.+++++++",
".+++++++.+++++++.+++++++.+++++++",
".+++++++.+++++++.+++++++.+++++++",
".+++++++.+++++++.++++++@.+++++++",
".+++++++.+@+++++.+++++++.+++@+++"};
