/* XPM */
static char * casa_xpm[] = {
"32 32 7 1",
" 	c None",
".	c #EB2EAB",
"+	c #F91BA5",
"@	c #83738F",
"#	c #4C4444",
"$	c #87861C",
"%	c #ABAAAA",
"                                ",
"                                ",
"                                ",
"                                ",
"               ..               ",
"              ....              ",
"             ++++++             ",
"            ++++++++            ",
"           +++++.++++           ",
"          +++.+...++++          ",
"         +++.........++         ",
"        ++++............        ",
"       +++..............+       ",
"      ++.................+      ",
"     ++..................++     ",
"    ++.....................+    ",
"    @+.+...##########....++     ",
"     .++...##########.....+     ",
"     +++...##########......     ",
"     +++...##########....+.     ",
"     ++....##########....+.     ",
"     ++....########$#...++.     ",
"     ++....##########..+++.     ",
"     ++....##########..+++.     ",
"     ++++..##########...++.     ",
"     +++++.##########++....     ",
"     +++++.##########.+++++     ",
"                      %         ",
"                                ",
"                                ",
"                                ",
"                                "};
