/* XPM */
static char * hello kitty_xpm[] = {
"32 32 132 2",
"  	c None",
". 	c #F84DA8",
"+ 	c #FC4EAB",
"@ 	c #EA489E",
"# 	c #000000",
"$ 	c #A5306F",
"% 	c #FF50AD",
"& 	c #F839A4",
"* 	c #F979B6",
"= 	c #FFFFFF",
"- 	c #868686",
"; 	c #FCCFE1",
"> 	c #F7169F",
", 	c #F84DA9",
"' 	c #F64B9D",
") 	c #F64B9F",
"! 	c #F839A5",
"~ 	c #FA90C0",
"{ 	c #F82DA2",
"] 	c #F940AA",
"^ 	c #F668A2",
"/ 	c #E0F623",
"( 	c #F4819B",
"_ 	c #F800A2",
": 	c #FBBFD8",
"< 	c #F84DA7",
"[ 	c #F54A99",
"} 	c #F74CA6",
"| 	c #FDE7EF",
"1 	c #F834A3",
"2 	c #F820A0",
"3 	c #FDD9E7",
"4 	c #F824A1",
"5 	c #F9D5E3",
"6 	c #FDFFFF",
"7 	c #838383",
"8 	c #8A8A8A",
"9 	c #ACACAC",
"0 	c #939393",
"a 	c #9B9B9B",
"b 	c #FEFEFE",
"c 	c #585858",
"d 	c #C3C3AB",
"e 	c #6C6A00",
"f 	c #ABAB84",
"g 	c #565656",
"h 	c #DBDBDB",
"i 	c #F2F2F2",
"j 	c #524F4F",
"k 	c #514E4E",
"l 	c #585555",
"m 	c #373434",
"n 	c #B56F9A",
"o 	c #FFA2E0",
"p 	c #EC92CA",
"q 	c #555553",
"r 	c #F4F5F4",
"s 	c #D382B5",
"t 	c #FF9FDC",
"u 	c #FE9DD9",
"v 	c #E893C8",
"w 	c #584E50",
"x 	c #F7169E",
"y 	c #FF00A0",
"z 	c #FC7BC4",
"A 	c #FAA0D9",
"B 	c #FD9CD8",
"C 	c #F297D0",
"D 	c #575656",
"E 	c #F4149C",
"F 	c #A2366A",
"G 	c #B27D9F",
"H 	c #FFA1DF",
"I 	c #EA91C9",
"J 	c #FE9ED9",
"K 	c #FA9BD6",
"L 	c #FF05A4",
"M 	c #FF00A7",
"N 	c #D0358A",
"O 	c #075643",
"P 	c #6E4F5B",
"Q 	c #FC12A1",
"R 	c #FF08A4",
"S 	c #FF009E",
"T 	c #FD6FBE",
"U 	c #FCA1DB",
"V 	c #F297CF",
"W 	c #A46D8A",
"X 	c #3F2F37",
"Y 	c #191E1C",
"Z 	c #FF0CA3",
"` 	c #BD2E7A",
" .	c #97738B",
"..	c #F295CF",
"+.	c #F6F6F6",
"@.	c #696868",
"#.	c #001F00",
"$.	c #C380A8",
"%.	c #FFA2DE",
"&.	c #FB90CF",
"*.	c #FF00A2",
"=.	c #FF06A3",
"-.	c #FF0DA7",
";.	c #DB098B",
">.	c #B6C0BD",
",.	c #9A005D",
"'.	c #D80889",
").	c #060506",
"!.	c #272325",
"~.	c #002400",
"{.	c #9E1D66",
"].	c #FF09A7",
"^.	c #474444",
"/.	c #575454",
"(.	c #535352",
"_.	c #5B4D50",
":.	c #771D47",
"<.	c #761E47",
"[.	c #761F47",
"}.	c #782048",
"|.	c #6E1A41",
"1.	c #4B182E",
"2.	c #5C474E",
"3.	c #565152",
"4.	c #555252",
"5.	c #D8D8D8",
"6.	c #EAEAEA",
"7.	c #565353",
"8.	c #EDEDED",
"9.	c #F7F7F7",
"0.	c #BFBFBF",
"a.	c #333131",
"                                  . . .   . . . .               ",
"                                  . . .   . . + @ # # #         ",
"        # # # # # # # # # # # # $ % . . . . . & * = = -         ",
"        - = = = = = = = = = = = ; > . . , ' ) ! * = = -         ",
"        - = = = = = = = = = ~ { . ] ^ / ( _ : = = = = -         ",
"        - = = = = = = = = = ~ { . . . . . . . & * = = -         ",
"        - = = = = = = = = = ~ { . . < [ } , . & * = = -         ",
"        - = = = = = = = = = = = = | 1 . 2 3 = = = = = -         ",
"        - = = = = = = = = = = = = | 1 . 4 5 6 = = = = 7         ",
"    # # 8 = = = = = = = = = = = = = = = = = = = = = = -         ",
"    # 9 = = = = = = = = = = = = = = = = = = = = = = = 8 # #     ",
"    # 9 = = = = = = = = = = = = = = = = = = = = = = = = 9 #     ",
"    # 9 = = = = 0 # a = = = = = = = = = = a # 0 = = = = 9 #     ",
"    # 9 = = = = 0 # a = = = = b b = = = = a # 0 = = = 8 # #     ",
"    # # # c b = = = = = = = = d e f = = = = = = = = = -         ",
"          g b = = = = = = = = d e f = = = = = = = = = -         ",
"          g b = = = = = = = = = = = = = = = = = = = = 8 # #     ",
"          # # # h = = = = = = = = = = = = = = = i j k l m #     ",
"                # # # # # # # # # # # # # # n o p q r = 9 #     ",
"              # s t u v w x y z A B C D E F G H p q r = 9 #     ",
"            # I J K u v w x L M N O P Q R S T U V W X Y         ",
"          # # p J K u v w x L Z Z Z Z Z Z M `  ...# #           ",
"          g +.@.#.$.%.&.*.=.Z Z Z Z Z Z Z Z -.;.# #             ",
"          g b = = >.,.M Z Z Z Z Z Z Z Z Z Z -.'.#               ",
"          g b = = >.,.M Z Z Z Z Z Z Z Z Z Z -.'.#               ",
"          ).!.!.!.~.{.].Z Z Z Z Z Z Z Z Z Z -.'.#               ",
"          # # # ;.-.Z Z Z Z Z Z Z Z Z Z Z Z -.'.#               ",
"              # ^./.(._.:.<.[.[.}.|.1.2.3.4./.^.#               ",
"              # 5.= = = = = = = = = 6.7.8.= = 5.#               ",
"              # 5.= = = = = = = = = 9./.8.= = 5.#               ",
"              # # 0.= = = = = = = = 9./.8.= 0.# #               ",
"                # # # # # # # # # # # # k a.# #                 "};
