/* XPM */
static char * kitty_xpm[] = {
"32 32 136 2",
"  	c None",
". 	c #60585B",
"+ 	c #EFD2DD",
"@ 	c #F84DA8",
"# 	c #F3D0DB",
"$ 	c #FC4EAB",
"% 	c #EA489E",
"& 	c #000000",
"* 	c #A5306F",
"= 	c #FF50AD",
"- 	c #F839A4",
"; 	c #F979B6",
"> 	c #FFFFFF",
", 	c #868686",
"' 	c #FCCFE1",
") 	c #F7169F",
"! 	c #F84DA9",
"~ 	c #F64B9D",
"{ 	c #F64B9F",
"] 	c #F839A5",
"^ 	c #FA90C0",
"/ 	c #F82DA2",
"( 	c #F940AA",
"_ 	c #F668A2",
": 	c #E0F623",
"< 	c #F4819B",
"[ 	c #F800A2",
"} 	c #FBBFD8",
"| 	c #F84DA7",
"1 	c #F54A99",
"2 	c #F74CA6",
"3 	c #FDE7EF",
"4 	c #F834A3",
"5 	c #F820A0",
"6 	c #FDD9E7",
"7 	c #F824A1",
"8 	c #F9D5E3",
"9 	c #FDFFFF",
"0 	c #838383",
"a 	c #8A8A8A",
"b 	c #ACACAC",
"c 	c #939393",
"d 	c #9B9B9B",
"e 	c #FEFEFE",
"f 	c #585858",
"g 	c #C3C3AB",
"h 	c #6C6A00",
"i 	c #ABAB84",
"j 	c #565656",
"k 	c #DBDBDB",
"l 	c #F2F2F2",
"m 	c #524F4F",
"n 	c #514E4E",
"o 	c #585555",
"p 	c #373434",
"q 	c #ECD4DF",
"r 	c #B56F9A",
"s 	c #FFA2E0",
"t 	c #EC92CA",
"u 	c #555553",
"v 	c #F4F5F4",
"w 	c #D382B5",
"x 	c #FF9FDC",
"y 	c #FE9DD9",
"z 	c #E893C8",
"A 	c #584E50",
"B 	c #F7169E",
"C 	c #FF00A0",
"D 	c #FC7BC4",
"E 	c #FAA0D9",
"F 	c #FD9CD8",
"G 	c #F297D0",
"H 	c #575656",
"I 	c #F4149C",
"J 	c #A2366A",
"K 	c #B27D9F",
"L 	c #FFA1DF",
"M 	c #EA91C9",
"N 	c #FE9ED9",
"O 	c #FA9BD6",
"P 	c #FF05A4",
"Q 	c #FF00A7",
"R 	c #D0358A",
"S 	c #075643",
"T 	c #6E4F5B",
"U 	c #FC12A1",
"V 	c #FF08A4",
"W 	c #FF009E",
"X 	c #FD6FBE",
"Y 	c #FCA1DB",
"Z 	c #F297CF",
"` 	c #A46D8A",
" .	c #3F2F37",
"..	c #191E1C",
"+.	c #FF0CA3",
"@.	c #BD2E7A",
"#.	c #97738B",
"$.	c #F295CF",
"%.	c #F6F6F6",
"&.	c #696868",
"*.	c #001F00",
"=.	c #C380A8",
"-.	c #FFA2DE",
";.	c #FB90CF",
">.	c #FF00A2",
",.	c #FF06A3",
"'.	c #FF0DA7",
").	c #DB098B",
"!.	c #B6C0BD",
"~.	c #9A005D",
"{.	c #D80889",
"].	c #060506",
"^.	c #272325",
"/.	c #002400",
"(.	c #9E1D66",
"_.	c #FF09A7",
":.	c #474444",
"<.	c #575454",
"[.	c #535352",
"}.	c #5B4D50",
"|.	c #771D47",
"1.	c #761E47",
"2.	c #761F47",
"3.	c #782048",
"4.	c #6E1A41",
"5.	c #4B182E",
"6.	c #5C474E",
"7.	c #565152",
"8.	c #555252",
"9.	c #D8D8D8",
"0.	c #EAEAEA",
"a.	c #565353",
"b.	c #EDEDED",
"c.	c #F7F7F7",
"d.	c #BFBFBF",
"e.	c #333131",
". + + + + + + + . + + + + + + + . @ @ @ + @ @ @ @ + + + # # + + ",
". + + + + + + + . + + + + + + + . @ @ @ + @ @ $ % & & & + + + + ",
". + + + & & & & & & & & & & & & * = @ @ @ @ @ - ; > > , + + + + ",
". + + + , > > > > > > > > > > > ' ) @ @ ! ~ { ] ; > > , + + + + ",
". + + + , > > > > > > > > > ^ / @ ( _ : < [ } > > > > , + + + + ",
". + + + , > > > > > > > > > ^ / @ @ @ @ @ @ @ - ; > > , + + + + ",
". + + + , > > > > > > > > > ^ / @ @ | 1 2 ! @ - ; > > , + + + + ",
". + + + , > > > > > > > > > > > > 3 4 @ 5 6 > > > > > , + # + + ",
". + + + , > > > > > > > > > > > > 3 4 @ 7 8 9 > > > > 0 + + + + ",
". + & & a > > > > > > > > > > > > > > > > > > > > > > , + + + + ",
". # & b > > > > > > > > > > > > > > > > > > > > > > > a & & + + ",
". + & b > > > > > > > > > > > > > > > > > > > > > > > > b & + + ",
". + & b > > > > c & d > > > > > > > > > > d & c > > > > b & + + ",
". + & b > > > > c & d > > > > e e > > > > d & c > > > a & & # + ",
". + & & & f e > > > > > > > > g h i > > > > > > > > > , + + # + ",
". + + + + j e > > > > > > > > g h i > > > > > > > > > , # # # + ",
". + + + + j e > > > > > > > > > > > > > > > > > > > > a & & # + ",
". + + + + & & & k > > > > > > > > > > > > > > > l m n o p & # + ",
". + + + + + + q & & & & & & & & & & & & & & r s t u v > b & # + ",
". + + + + + + & w x y z A B C D E F G H I J K L t u v > b & # + ",
". + + + + + & M N O y z A B P Q R S T U V W X Y Z `  ...+ + + + ",
". + + + + & & t N O y z A B P +.+.+.+.+.+.Q @.#.$.& & + + + + + ",
". + + + + j %.&.*.=.-.;.>.,.+.+.+.+.+.+.+.+.'.).& & + + + # # + ",
". + + + + j e > > !.~.Q +.+.+.+.+.+.+.+.+.+.'.{.& q + + + + + + ",
". + + + + j e > > !.~.Q +.+.+.+.+.+.+.+.+.+.'.{.& q + + + + + + ",
". + + + + ].^.^.^./.(._.+.+.+.+.+.+.+.+.+.+.'.{.& q + + + + + + ",
". + + + + & & & ).'.+.+.+.+.+.+.+.+.+.+.+.+.'.{.& + + + + + + + ",
". + + + + + + & :.<.[.}.|.1.2.2.3.4.5.6.7.8.<.:.& + + + + + + + ",
". + + + + + + & 9.> > > > > > > > > 0.a.b.> > 9.& + + + + + + + ",
". + + + + + + & 9.> > > > > > > > > c.<.b.> > 9.& + + + + + + + ",
". + + + + + + & & d.> > > > > > > > c.<.b.> d.& & + + + + + + + ",
". + + + + + + + & & & & & & & & & & & & n e.& & . + + + # + + + "};
