/* XPM */
static char * muro_xpm[] = {
"32 32 141 2",
"  	c #BA5074",
". 	c #B84E72",
"+ 	c #BC5276",
"@ 	c #BE5578",
"# 	c #BB5275",
"$ 	c #BB5175",
"% 	c #B94E72",
"& 	c #B74D70",
"* 	c #B84F72",
"= 	c #B64C6F",
"- 	c #B4496D",
"; 	c #B74C70",
"> 	c #B84C71",
", 	c #B84D71",
"' 	c #B74D71",
") 	c #BD5276",
"! 	c #BB5174",
"~ 	c #B94F73",
"{ 	c #BD5578",
"] 	c #BE5477",
"^ 	c #C0587B",
"/ 	c #BD5376",
"( 	c #BE5679",
"_ 	c #B94F72",
": 	c #BB5074",
"< 	c #B64C70",
"[ 	c #B54A6E",
"} 	c #B74B6F",
"| 	c #B94D71",
"1 	c #B5496D",
"2 	c #B95074",
"3 	c #B64A6F",
"4 	c #B2476B",
"5 	c #B64B6F",
"6 	c #BC5376",
"7 	c #BE5478",
"8 	c #BF577A",
"9 	c #BC5477",
"0 	c #BF567A",
"a 	c #BA4F73",
"b 	c #B4486C",
"c 	c #BA5073",
"d 	c #BB5276",
"e 	c #BB5075",
"f 	c #BE5579",
"g 	c #BB5376",
"h 	c #BC5275",
"i 	c #B84C70",
"j 	c #B94D72",
"k 	c #B4486D",
"l 	c #B2486B",
"m 	c #B84E71",
"n 	c #BD5477",
"o 	c #C25A7D",
"p 	c #B5496E",
"q 	c #B14569",
"r 	c #B14669",
"s 	c #B24569",
"t 	c #B54C6F",
"u 	c #B4496C",
"v 	c #B44A6D",
"w 	c #B3486B",
"x 	c #BD5377",
"y 	c #C0577A",
"z 	c #BC5377",
"A 	c #BC5578",
"B 	c #B4476C",
"C 	c #B2476A",
"D 	c #B3476A",
"E 	c #B3476C",
"F 	c #AF4367",
"G 	c #B44B6E",
"H 	c #B95073",
"I 	c #B84D72",
"J 	c #B2466A",
"K 	c #B3476B",
"L 	c #B04468",
"M 	c #B64A6E",
"N 	c #B14769",
"O 	c #B04769",
"P 	c #B54A6D",
"Q 	c #B14568",
"R 	c #B3486C",
"S 	c #B5486C",
"T 	c #AE4366",
"U 	c #B94E73",
"V 	c #B04568",
"W 	c #B54B6E",
"X 	c #AE4266",
"Y 	c #AF4468",
"Z 	c #B14469",
"` 	c #B04367",
" .	c #B3466B",
"..	c #BC5176",
"+.	c #BD5478",
"@.	c #B64B70",
"#.	c #AA3E62",
"$.	c #B3496C",
"%.	c #BC5175",
"&.	c #B54B6F",
"*.	c #B84D70",
"=.	c #B1466A",
"-.	c #B3466A",
";.	c #BA4E73",
">.	c #B14468",
",.	c #C0577B",
"'.	c #BA5174",
").	c #AF4266",
"!.	c #C1587B",
"~.	c #B44A6E",
"{.	c #AD4164",
"].	c #AF4267",
"^.	c #B1476A",
"/.	c #B2456A",
"(.	c #AE4467",
"_.	c #AC4164",
":.	c #AF4467",
"<.	c #AD4265",
"[.	c #B74B70",
"}.	c #BB4F74",
"|.	c #B04569",
"1.	c #AB4063",
"2.	c #B04467",
"3.	c #AE4367",
"4.	c #AF4366",
"5.	c #B04669",
"6.	c #AE4165",
"7.	c #B74E71",
"8.	c #B64B6E",
"9.	c #B2496C",
"0.	c #AB3E62",
"a.	c #AE4265",
"b.	c #AA3E61",
"c.	c #AC3F63",
"d.	c #AD4165",
"e.	c #B2466B",
"f.	c #B24669",
"g.	c #AC4064",
"h.	c #B74C71",
"i.	c #AD4064",
"j.	c #B74C6F",
"  . + @ # $ % &   * $ = - ; $ % > , $ ' )   ! ~ { ] $ ^ @ / @ ( ",
"_ + $ + :   $ <   , % [ } | 1 , [ 2 3 4 5 = ~ $ < 6 7 @ 8 9 0 6 ",
"    ' ' , a ' % ; 5 % 5 b [ c 3 - , 1 } [ , 5   d e   f @ ( 7 g ",
": , < 5 h   % , } i , - 5 = 1 j a k 5 , l : m a ~ * n $ 6 c o 7 ",
"  . . c ~ # ! , ; i p - q 5 r s [ t % u v w m d ~ m x y z ~ A $ ",
"v c $ ; ; # . 5 , 5 B u C D u E b F - [ G = = G , ~ a + 0 # 6 H ",
"z h 6 % ; ;   I m [ 1 5 b J K K q L M k N O P [ a 6 ;   .   H # ",
"} $ $ % m   < 5 K 4 1 v q J Q K L M - ' , R = 5 , ~ H d 6 ~ . 6 ",
"a *   , < [ b % b - S K L J T J q K J M 1 R r ; ~ < . : z 6 6 x ",
"R a ~ U ; ; M J M M J u q V w K s q b 4 E > ; [ [ U ,   + % . + ",
"a   = W   5 ; M K b b w - X K Y F Z `  .5 w 5 ; % ..6 $ / +.  5 ",
". ,   @.: [ - c 1 3 b w L #.L L Z q Y K $.[ , ; , a %.  H 7 ~ + ",
", t &.@.m : W *.[ 4 q K q =.F b L -.V K R K 5 - $ , H   : d $ z ",
";.a ' - : ' - =.[ q b K >.V [ C K b K K q [ K b > . + $ ! ,.'.z ",
"m l < &.. M $.C b - L Z s q 4 -.J q L ).- b k R [ K &.. %.a x !.",
", 4 ' R 1 ' ~.q b - b L - {.].J ^.J C q K K /.Y K ~ % ~ $ %   + ",
"- W _ < ; w u b (._.T =.K :.V <.(.- q ` /.J 1 M [.; , }.  n d { ",
"5 m = w < i & W V R (.|.q F - K 4 w b q L L K J 1 5 ; < %   .   ",
". } < H > ; R 1 w C 1.2.s =.1.|.[ 2.1 q u 1 K - w 5 & a + + . ~ ",
"} , , K ; K & = J |.3.- :.L 1.X q r :.R b b M p [ ; ..%.$ e ; ~ ",
"; ~ - 5 [ . 5 - K /.:.T w 4 X L L F q V L C - } k i ~ [.. . + : ",
"5 M < - 5 5 [ 4 >. .J X T L 4.2.q 4.X 5. ./.b R 5 % 5 5 R H +   ",
"5 . b C [ ; [ =.r q M L r L V X 4.L C Y 6.K R M ; v % . 7.. a # ",
"&.- , % k q 8.& L K L q K 6.k ~.& F C K 1 J C P 1 =.b   , < & a ",
"; 5 ; u 9.W C v 4 w =.V /.1.b T r R R 4 L J q : M 3 4 R W   i # ",
"/.[ < M % l k [ L |.L 0.<.F V K q F L a.K L L =.C ; < = a 1 , ' ",
"1 % R - ; C C - r C L b.q J >.q a.L <.L L J q b 8.O ; % - M a w ",
"P j [ 5 K k r :.C J ).c.d.F w J J L F L =.=.4.e.% K 5 e.v % M # ",
"4 & 5 ; M v & L |.- f.|.{.` g.k 4.L K q J J L K 8.J P 4 m < h.' ",
"; K R 5 [ l 4 L X Y L |.L F K q 1 F 1 q 1 e.1 |.g.; v 1   i p . ",
"3 K [ - = J R [ q W - |.Q q i.L K ).X s q D P M r = - e.; p , 1 ",
"- M K 1 M k R 5 q 8.- L ).L R f.b J 4 J |.q b 5 b r q J ~ 1 j.c "};
