/* XPM */
static char * pavimento_xpm[] = {
"32 32 5 1",
" 	c None",
".	c #60585B",
"+	c #EFD2DD",
"@	c #F3D0DB",
"#	c #ECD4DF",
".+++++++.+++++++.+++++++.+++@@++",
".+++++++.+++++++.+++++++.+++++++",
".+++++++.+++++++.+++++++.+++++++",
".+++++++.+++++++.+++++++.+++++++",
".+++++++.+++++++.+++++++.+++++++",
".+++++++.+++++++.+++++++.+++++++",
".+++++++.+++++++.+++++++.+++++++",
".+++++++.+++++++.+@@++@@.++++@++",
".+++++++.+++++++.@++++++.+++++++",
".+++++++.+++++++.+++++@@.+++++++",
".@@+++++.+++++++.+++++++.+++@@++",
".+++++++.+++++++.@@@++@@.+++@@++",
".+++++++.+++++++.+++++++.+++++++",
".+++##++.+++++++.+++++++.+++++@+",
".++++#++.+++++++.+++++++.+++++@+",
".++++###.+++++++.++++++@.+++@@@+",
".++++###.+++++++.+++++++.#++@@@+",
".++++++#.+++++++.+++++++.##+@@@+",
".++++++#.+++++++.+++++++.##+@@@+",
".++++++#.+++++++.+++++++.##+@@@+",
".++++++#.+++++++.+++++++.##+++++",
".++++++#.+++++++.+++++++.##+++++",
".++++++#.+++++++.+++++++.#+++@@+",
".++++++#.+++++++.+++++++.#++++++",
".++++++#.+++++++.+++++++.#++++++",
".++++++#.+++++++.+++++++.#++++++",
".+++++++.+++++++.+++++++.+++++++",
".+++++++.+++++++.+++++++.+++++++",
".+++++++.+++++++.+++++++.+++++++",
".+++++++.+++++++.+++++++.+++++++",
".+++++++.+++++++.++++++@.+++++++",
".+++++++.+@+++++.+++++++.+++@+++"};
