/* XPM */
static char * pavimento_xpm[] = {
"32 32 4 1",
" 	c #F7CED9",
".	c #777575",
"+	c #F3D0DB",
"@	c #FADBE1",
"     .     .       .      .     ",
"     .     .       .      .     ",
"     .     .       .      .     ",
"     .     .       .      .     ",
"     .     .       .      .     ",
"     .     .       .      .     ",
"     .     .       .      .     ",
"     .     .       .      .     ",
"     .     .       .      .     ",
"     .     .       .      .     ",
"     .     .       .      .     ",
"     .     .       .      .     ",
"     .     .       .      .     ",
"+    .     .       .      .     ",
"@    .     .       .      .     ",
"................................",
"  .     .      .       .     .  ",
"  .     .++    .       .     .  ",
"  .     .+     .     ++.     .  ",
"  .     .+     .      +.     .  ",
"  .     .      .      +.     .  ",
"  .     .      .+     +.     .  ",
"  .     .      .+     +.     .  ",
"  .     .      .+     +.     .  ",
"  .     .      .++     .     .  ",
"  .     .      .++     .     .  ",
"  .     .      .++     .     .  ",
"  .     .      .+      .     .  ",
"  .     .      .++     .     .  ",
"  .     .      .+      .     .  ",
"  .     .      .+      .     .  ",
"  .     .      .       .     .  "};
